<svg xmlns="http://www.w3.org/2000/svg" width="24" height="24" viewBox="0 0 24 24" fill="#00768E">
  <path
     d="M 7.5426173,10.651419 C 7.1899349,10.356176 6.9930471,9.977111 6.9519542,9.5142277 6.9108607,9.0513447 7.0378907,8.6435072 7.333043,8.2907146 7.628195,7.9379228 8.0071401,7.7409736 8.4698793,7.6998678 8.9326185,7.6587618 9.3403286,7.7858312 9.6930111,8.0810757 10.045694,8.37632 10.242582,8.7553836 10.283676,9.2182671 10.324772,9.6811512 10.197735,10.088989 9.9025862,10.44178 9.6074338,10.794573 9.2284885,10.991522 8.765749,11.032628 8.3030098,11.073735 7.8952996,10.946667 7.5426173,10.651419 Z M 4.8230017,13.902151 C 3.5634217,12.847708 2.8617191,11.510438 2.7178937,9.8903464 2.5740683,8.2702556 3.0292127,6.830223 4.0833273,5.5702501 5.1374419,4.3102773 6.4742922,3.6083558 8.0938779,3.4644854 9.713465,3.320615 11.153048,3.7759018 12.412627,4.8303456 c 0.906899,0.7591994 1.521235,1.6376944 1.843008,2.6354849 0.321774,0.997791 0.314227,2.0948149 -0.02264,3.2910745 l 3.056486,2.558705 3.669668,3.072025 0.348264,3.922934 -5.574439,0.250258 -0.650696,-2.60144 -2.674595,-0.182293 -0.468324,-2.320223 -0.963579,-0.80665 c -0.947362,0.492372 -1.9608997,0.69904 -3.0406087,0.620002 -1.0797091,-0.07904 -2.1170976,-0.535062 -3.1121655,-1.368072 z m 0.9487027,-1.133976 c 0.7305564,0.611578 1.6073487,0.933159 2.6303764,0.964747 1.0230289,0.0316 1.9389482,-0.256798 2.7477582,-0.865159 l 2.153882,1.803097 0.308732,1.704583 2.658784,0.201191 0.568956,2.468741 2.85509,-0.148653 -0.157182,-1.770529 -7.028454,-5.883796 C 12.948802,10.410281 13.079539,9.4860092 12.901857,8.4695872 12.724174,7.4531649 12.244863,6.6180764 11.463925,5.9643212 10.51924,5.1734884 9.4395522,4.8320233 8.2248619,4.9399262 7.0101726,5.0478289 6.007535,5.57427 5.2169491,6.5192496 4.4263627,7.4642293 4.0850043,8.5442535 4.1928736,9.759321 c 0.1078694,1.21507 0.6341463,2.218021 1.5788308,3.008854 z"
     id="path17"
     style="fill:#00768e;fill-opacity:1;stroke:#00768e;stroke-width:0.830444;stroke-linecap:round;stroke-linejoin:round;stroke-miterlimit:4;stroke-dasharray:none;stroke-dashoffset:0;stroke-opacity:1;paint-order:stroke fill markers"
     />
</svg>
