<svg xmlns="http://www.w3.org/2000/svg" width="24" height="24" viewBox="0 0 24 24" fill="#00768E">
  <path
     d="m 12.785863,14.875654 -2.294359,-2.347282 0.0271,-0.02806 c 1.571726,-1.814234 2.691807,-3.8996681 3.351209,-6.106674 h 2.646644 V 4.5186232 H 10.193418 V 2.6482792 H 8.3868358 v 1.870344 H 2.0637988 V 6.3796158 H 12.153559 C 11.543838,8.184498 10.590866,9.8958629 9.2901271,11.392137 8.450066,10.424235 7.7545319,9.3721666 7.2035247,8.2593119 H 5.3969428 C 6.056345,9.7836418 6.959636,11.223807 8.0887501,12.523695 l -4.5932349,4.699241 1.2781568,1.323268 4.5164551,-4.67586 2.8092349,2.908385 z m 5.085529,-4.745998 H 16.064809 L 12,21.351721 h 1.806582 l 1.016202,-2.805517 h 4.290632 l 1.016204,2.805517 h 1.806581 z m -2.37114,6.546204 1.467848,-4.05397 1.467848,4.05397 z"
     id="path349"
     style="stroke-width:0.459547" />
</svg>
